# xmcd CD database file
#
# Track frame offsets:
#	150
#	13444
#	26967
#	57046
#	74463
#	92506
#	104072
#	127839
#	146668
#	166287
#	179918
#	205944
#	227297
#	261175
#	278667
#	293253
#	323497
#	337905
#
# Disc length: 4688 seconds
#
# Revision: 0
# Processed by: cddbd v1.5.2PL0 Copyright (c) Steve Scherf et al.
# Submitted via: CDex 1.70beta2
#
DISCID=03124e12
DTITLE=Various Artist - Battle Of Trombones CD4
DYEAR=2005
DGENRE=Jazz
TTITLE0=J. J. Johnson, Kai Winding - Hip Bones
TTITLE1=Benny Green - Embraceable You
TTITLE2=Bob Brookmeyer - 9.20 Speicial
TTITLE3=J. J. Jonhnson - Lover Man
TTITLE4=Jimmy Cleveland - Up In Quincy's Room
TTITLE5=J. J. Johnson, Kai Winding - How Long Has This Been Going On
TTITLE6=Curtis Fuller - Idaho
TTITLE7=J. J. Johnson - Get Happy
TTITLE8=Bob Brookmeyer - I Never Knew
TTITLE9=J. J. Johnson, Kai Winding - Don't Argue
TTITLE10=Curtis Fuller - Moose The Mooche
TTITLE11=J. J. Johnson - It Could Happen To You
TTITLE12=Curtis Fuller - Don't Blame Me
TTITLE13=Bob Brookmeyer - Lover Man
TTITLE14=J. J. Johnson, Kai Winding - Riviera
TTITLE15=Bob Brookmeyer - Steeplechase
TTITLE16=J. J. Johnson, Kai Winding - Wind Bag
TTITLE17=J. J. Johnson, Kai Winding - Dinner For One
EXTD=YEAR: 2005
EXTT0=
EXTT1=
EXTT2=
EXTT3=
EXTT4=
EXTT5=
EXTT6=
EXTT7=
EXTT8=
EXTT9=
EXTT10=
EXTT11=
EXTT12=
EXTT13=
EXTT14=
EXTT15=
EXTT16=
EXTT17=
PLAYORDER=
